<?xml version="1.0" encoding="UTF-8" standalone="no"?>
<!DOCTYPE svg PUBLIC "-//W3C//DTD SVG 1.1//EN" "http://www.w3.org/Graphics/SVG/1.1/DTD/svg11.dtd">
<svg xmlns="http://www.w3.org/2000/svg" version="1.1" viewBox="0 0 1000 1000"><g transform="translate(308.39535497775177,309.184775102907) scale(0.26915796070383574)"><path class="tree-link" d="M85.5,60C85.5,0 85.5,11.5 85.5,11.5" style="stroke-opacity: 1;"></path><path class="tree-link" d="M85.5,120C85.5,60 85.5,71.5 85.5,71.5" style="stroke-opacity: 1;"></path><path class="tree-link" d="M85.5,180C85.5,120 85.5,131.5 85.5,131.5" style="stroke-opacity: 1;"></path><path class="tree-link" d="M-517.75,240C-517.75,180 85.5,191.5 85.5,191.5" style="stroke-opacity: 1;"></path><path class="tree-link" d="M-327.74999999999994,240C-327.74999999999994,180 85.5,191.5 85.5,191.5" style="stroke-opacity: 1;"></path><path class="tree-link" d="M-137.74999999999997,240C-137.74999999999997,180 85.5,191.5 85.5,191.5" style="stroke-opacity: 1;"></path><path class="tree-link" d="M74.41666666666671,240C74.41666666666671,180 85.5,191.5 85.5,191.5" style="stroke-opacity: 1;"></path><path class="tree-link" d="M286.58333333333337,240C286.58333333333337,180 85.5,191.5 85.5,191.5" style="stroke-opacity: 1;"></path><path class="tree-link" d="M498.74999999999994,240C498.74999999999994,180 85.5,191.5 85.5,191.5" style="stroke-opacity: 1;"></path><path class="tree-link" d="M688.75,240C688.75,180 85.5,191.5 85.5,191.5" style="stroke-opacity: 1;"></path><path class="tree-link" d="M-137.74999999999997,300C-137.74999999999997,240 -137.74999999999997,251.5 -137.74999999999997,251.5" style="stroke-opacity: 1;"></path><path class="tree-link" d="M128.25,300C128.25,240 498.74999999999994,251.5 498.74999999999994,251.5" style="stroke-opacity: 1;"></path><path class="tree-link" d="M869.25,300C869.25,240 498.74999999999994,251.5 498.74999999999994,251.5" style="stroke-opacity: 1;"></path><path class="tree-link" d="M-251.75,360C-251.75,300 128.25,311.5 128.25,311.5" style="stroke-opacity: 1;"></path><path class="tree-link" d="M-61.74999999999997,360C-61.74999999999997,300 128.25,311.5 128.25,311.5" style="stroke-opacity: 1;"></path><path class="tree-link" d="M128.25,360C128.25,300 128.25,311.5 128.25,311.5" style="stroke-opacity: 1;"></path><path class="tree-link" d="M318.25,360C318.25,300 128.25,311.5 128.25,311.5" style="stroke-opacity: 1;"></path><path class="tree-link" d="M508.25,360C508.25,300 128.25,311.5 128.25,311.5" style="stroke-opacity: 1;"></path><path class="tree-link" d="M774.2500000000001,360C774.2500000000001,300 869.25,311.5 869.25,311.5" style="stroke-opacity: 1;"></path><path class="tree-link" d="M964.25,360C964.25,300 869.25,311.5 869.25,311.5" style="stroke-opacity: 1;"></path><path class="tree-link" d="M-61.74999999999997,420C-61.74999999999997,360 128.25,371.5 128.25,371.5" style="stroke-opacity: 1;"></path><path class="tree-link" d="M128.25,420C128.25,360 128.25,371.5 128.25,371.5" style="stroke-opacity: 1;"></path><path class="tree-link" d="M318.25,420C318.25,360 128.25,371.5 128.25,371.5" style="stroke-opacity: 1;"></path><path class="tree-link" d="M-935.75,480C-935.75,420 128.25,431.5 128.25,431.5" style="stroke-opacity: 1;"></path><path class="tree-link" d="M-669.75,480C-669.75,420 128.25,431.5 128.25,431.5" style="stroke-opacity: 1;"></path><path class="tree-link" d="M-403.75000000000006,480C-403.75000000000006,420 128.25,431.5 128.25,431.5" style="stroke-opacity: 1;"></path><path class="tree-link" d="M-137.75000000000014,480C-137.75000000000014,420 128.25,431.5 128.25,431.5" style="stroke-opacity: 1;"></path><path class="tree-link" d="M128.24999999999994,480C128.24999999999994,420 128.25,431.5 128.25,431.5" style="stroke-opacity: 1;"></path><path class="tree-link" d="M394.25,480C394.25,420 128.25,431.5 128.25,431.5" style="stroke-opacity: 1;"></path><path class="tree-link" d="M660.2500000000001,480C660.2500000000001,420 128.25,431.5 128.25,431.5" style="stroke-opacity: 1;"></path><path class="tree-link" d="M926.2500000000001,480C926.2500000000001,420 128.25,431.5 128.25,431.5" style="stroke-opacity: 1;"></path><path class="tree-link" d="M1192.2500000000002,480C1192.2500000000002,420 128.25,431.5 128.25,431.5" style="stroke-opacity: 1;"></path><path class="tree-link" d="M-935.75,540C-935.75,480 -935.75,491.5 -935.75,491.5" style="stroke-opacity: 1;"></path><path class="tree-link" d="M-669.75,540C-669.75,480 -669.75,491.5 -669.75,491.5" style="stroke-opacity: 1;"></path><path class="tree-link" d="M-403.75000000000006,540C-403.75000000000006,480 -403.75000000000006,491.5 -403.75000000000006,491.5" style="stroke-opacity: 1;"></path><path class="tree-link" d="M-137.75000000000014,540C-137.75000000000014,480 -137.75000000000014,491.5 -137.75000000000014,491.5" style="stroke-opacity: 1;"></path><path class="tree-link" d="M128.24999999999994,540C128.24999999999994,480 128.24999999999994,491.5 128.24999999999994,491.5" style="stroke-opacity: 1;"></path><path class="tree-link" d="M394.25,540C394.25,480 394.25,491.5 394.25,491.5" style="stroke-opacity: 1;"></path><path class="tree-link" d="M660.2500000000001,540C660.2500000000001,480 660.2500000000001,491.5 660.2500000000001,491.5" style="stroke-opacity: 1;"></path><path class="tree-link" d="M926.2500000000001,540C926.2500000000001,480 926.2500000000001,491.5 926.2500000000001,491.5" style="stroke-opacity: 1;"></path><path class="tree-link" d="M1192.2500000000002,540C1192.2500000000002,480 1192.2500000000002,491.5 1192.2500000000002,491.5" style="stroke-opacity: 1;"></path><g class="tree-node tree-root" transform="translate(0, 0)" style="opacity: 1;"><rect width="171" height="23" rx="0" ry="0"></rect><text class="node-text" y="11.5" dy=".35em" x="51.313533782958984">programa</text><text class="token-range" x="0" y="11.5" dx="0" dy="-1.8em">⨳ 0-22</text><text class="token-value" x="0" y="11.5" dy="2.5em" dx="85.5"></text></g><g class="tree-node" transform="translate(0, 60)" style="opacity: 1;"><rect width="171" height="23" rx="0" ry="0"></rect><text class="node-text" y="11.5" dy=".35em" x="38.8820915222168">instrucciones</text><text class="token-range" x="0" y="11.5" dx="0" dy="-1.8em">⨳ 0-22</text><text class="token-value" x="0" y="11.5" dy="2.5em" dx="85.5"></text></g><g class="tree-node" transform="translate(0, 120)" style="opacity: 1;"><rect width="171" height="23" rx="0" ry="0"></rect><text class="node-text" y="11.5" dy=".35em" x="47.32178497314453">instruccion</text><text class="token-range" x="0" y="11.5" dx="0" dy="-1.8em">⨳ 0-22</text><text class="token-value" x="0" y="11.5" dy="2.5em" dx="85.5"></text></g><g class="tree-node" transform="translate(0, 180)" style="opacity: 1;"><rect width="171" height="23" rx="0" ry="0"></rect><text class="node-text" y="11.5" dy=".35em" x="56.18916702270508">decision</text><text class="token-range" x="0" y="11.5" dx="0" dy="-1.8em">⨳ 0-22</text><text class="token-value" x="0" y="11.5" dy="2.5em" dx="85.5"></text></g><g class="tree-node tree-leaf" transform="translate(-603.25, 240)" style="opacity: 1;"><rect width="171" height="23" rx="10" ry="10"></rect><text class="node-text" y="11.5" dy=".35em" x="78.40039157867432">IF</text><text class="token-range" x="0" y="11.5" dx="0" dy="-1.8em">⨳ 0</text><text class="token-value" x="0" y="11.5" dy="2.5em" dx="75.9198055267334">if</text></g><g class="tree-node tree-leaf" transform="translate(-413.25, 240)" style="opacity: 1;"><rect width="171" height="23" rx="10" ry="10"></rect><text class="node-text" y="11.5" dy=".35em" x="54.136268615722656">LPAREN</text><text class="token-range" x="0" y="11.5" dx="0" dy="-1.8em">⨳ 1</text><text class="token-value" x="0" y="11.5" dy="2.5em" dx="80.7099027633667">(</text></g><g class="tree-node" transform="translate(-223.25, 240)" style="opacity: 1;"><rect width="171" height="23" rx="0" ry="0"></rect><text class="node-text" y="11.5" dy=".35em" x="51.74121856689453">condicion</text><text class="token-range" x="0" y="11.5" dx="0" dy="-1.8em">⨳ 2</text><text class="token-value" x="0" y="11.5" dy="2.5em" dx="85.5"></text></g><g class="tree-node tree-leaf" transform="translate(-11.083333015441895, 240)" style="opacity: 1;"><rect width="171" height="23" rx="10" ry="10"></rect><text class="node-text" y="11.5" dy=".35em" x="52.796180725097656">RPAREN</text><text class="token-range" x="0" y="11.5" dx="0" dy="-1.8em">⨳ 3</text><text class="token-value" x="0" y="11.5" dy="2.5em" dx="80.7099027633667">)</text></g><g class="tree-node tree-leaf" transform="translate(201.0833282470703, 240)" style="opacity: 1;"><rect width="171" height="23" rx="10" ry="10"></rect><text class="node-text" y="11.5" dy=".35em" x="53.537506103515625">LBRACE</text><text class="token-range" x="0" y="11.5" dx="0" dy="-1.8em">⨳ 4</text><text class="token-value" x="0" y="11.5" dy="2.5em" dx="80.7099027633667">{</text></g><g class="tree-node" transform="translate(413.25, 240)" style="opacity: 1;"><rect width="171" height="23" rx="0" ry="0"></rect><text class="node-text" y="11.5" dy=".35em" x="51.313533782958984">sentencia</text><text class="token-range" x="0" y="11.5" dx="0" dy="-1.8em">⨳ 5-21</text><text class="token-value" x="0" y="11.5" dy="2.5em" dx="85.5"></text></g><g class="tree-node tree-leaf" transform="translate(603.25, 240)" style="opacity: 1;"><rect width="171" height="23" rx="10" ry="10"></rect><text class="node-text" y="11.5" dy=".35em" x="52.22593307495117">RBRACE</text><text class="token-range" x="0" y="11.5" dx="0" dy="-1.8em">⨳ 22</text><text class="token-value" x="0" y="11.5" dy="2.5em" dx="80.7099027633667">}</text></g><g class="tree-node tree-leaf" transform="translate(-223.25, 300)" style="opacity: 1;"><rect width="171" height="23" rx="10" ry="10"></rect><text class="node-text" y="11.5" dy=".35em" x="68.19292259216309">ONE</text><text class="token-range" x="0" y="11.5" dx="0" dy="-1.8em">⨳ 2</text><text class="token-value" x="0" y="11.5" dy="2.5em" dx="80.7099027633667">1</text></g><g class="tree-node" transform="translate(42.75, 300)" style="opacity: 1;"><rect width="171" height="23" rx="0" ry="0"></rect><text class="node-text" y="11.5" dy=".35em" x="64.62886238098145">salida</text><text class="token-range" x="0" y="11.5" dx="0" dy="-1.8em">⨳ 5-19</text><text class="token-value" x="0" y="11.5" dy="2.5em" dx="85.5"></text></g><g class="tree-node" transform="translate(783.75, 300)" style="opacity: 1;"><rect width="171" height="23" rx="0" ry="0"></rect><text class="node-text" y="11.5" dy=".35em" x="56.21767997741699">terminar</text><text class="token-range" x="0" y="11.5" dx="0" dy="-1.8em">⨳ 20-21</text><text class="token-value" x="0" y="11.5" dy="2.5em" dx="85.5"></text></g><g class="tree-node tree-leaf" transform="translate(-337.25, 360)" style="opacity: 1;"><rect width="171" height="23" rx="10" ry="10"></rect><text class="node-text" y="11.5" dy=".35em" x="56.64536666870117">PRINTF</text><text class="token-range" x="0" y="11.5" dx="0" dy="-1.8em">⨳ 5</text><text class="token-value" x="0" y="11.5" dy="2.5em" dx="56.759416580200195">printf</text></g><g class="tree-node tree-leaf" transform="translate(-147.25, 360)" style="opacity: 1;"><rect width="171" height="23" rx="10" ry="10"></rect><text class="node-text" y="11.5" dy=".35em" x="54.136268615722656">LPAREN</text><text class="token-range" x="0" y="11.5" dx="0" dy="-1.8em">⨳ 6</text><text class="token-value" x="0" y="11.5" dy="2.5em" dx="80.7099027633667">(</text></g><g class="tree-node" transform="translate(42.75, 360)" style="opacity: 1;"><rect width="171" height="23" rx="0" ry="0"></rect><text class="node-text" y="11.5" dy=".35em" x="59.297027587890625">cadena</text><text class="token-range" x="0" y="11.5" dx="0" dy="-1.8em">⨳ 7-17</text><text class="token-value" x="0" y="11.5" dy="2.5em" dx="85.5"></text></g><g class="tree-node tree-leaf" transform="translate(232.75, 360)" style="opacity: 1;"><rect width="171" height="23" rx="10" ry="10"></rect><text class="node-text" y="11.5" dy=".35em" x="52.796180725097656">RPAREN</text><text class="token-range" x="0" y="11.5" dx="0" dy="-1.8em">⨳ 18</text><text class="token-value" x="0" y="11.5" dy="2.5em" dx="80.7099027633667">)</text></g><g class="tree-node tree-leaf" transform="translate(422.75, 360)" style="opacity: 1;"><rect width="171" height="23" rx="10" ry="10"></rect><text class="node-text" y="11.5" dy=".35em" x="49.118072509765625">SIMBOLO</text><text class="token-range" x="0" y="11.5" dx="0" dy="-1.8em">⨳ 19</text><text class="token-value" x="0" y="11.5" dy="2.5em" dx="80.7099027633667">;</text></g><g class="tree-node tree-leaf" transform="translate(688.75, 360)" style="opacity: 1;"><rect width="171" height="23" rx="10" ry="10"></rect><text class="node-text" y="11.5" dy=".35em" x="52.22593307495117">RETURN</text><text class="token-range" x="0" y="11.5" dx="0" dy="-1.8em">⨳ 20</text><text class="token-value" x="0" y="11.5" dy="2.5em" dx="56.759416580200195">return</text></g><g class="tree-node tree-leaf" transform="translate(878.75, 360)" style="opacity: 1;"><rect width="171" height="23" rx="10" ry="10"></rect><text class="node-text" y="11.5" dy=".35em" x="49.118072509765625">SIMBOLO</text><text class="token-range" x="0" y="11.5" dx="0" dy="-1.8em">⨳ 21</text><text class="token-value" x="0" y="11.5" dy="2.5em" dx="80.7099027633667">;</text></g><g class="tree-node tree-leaf" transform="translate(-147.25, 420)" style="opacity: 1;"><rect width="171" height="23" rx="10" ry="10"></rect><text class="node-text" y="11.5" dy=".35em" x="51.342044830322266">DQUOTE</text><text class="token-range" x="0" y="11.5" dx="0" dy="-1.8em">⨳ 7</text><text class="token-value" x="0" y="11.5" dy="2.5em" dx="80.7099027633667">"</text></g><g class="tree-node" transform="translate(42.75, 420)" style="opacity: 1;"><rect width="171" height="23" rx="0" ry="0"></rect><text class="node-text" y="11.5" dy=".35em" x="48.20567321777344">caracteres</text><text class="token-range" x="0" y="11.5" dx="0" dy="-1.8em">⨳ 8-16</text><text class="token-value" x="0" y="11.5" dy="2.5em" dx="85.5"></text></g><g class="tree-node tree-leaf" transform="translate(232.75, 420)" style="opacity: 1;"><rect width="171" height="23" rx="10" ry="10"></rect><text class="node-text" y="11.5" dy=".35em" x="51.342044830322266">DQUOTE</text><text class="token-range" x="0" y="11.5" dx="0" dy="-1.8em">⨳ 17</text><text class="token-value" x="0" y="11.5" dy="2.5em" dx="80.7099027633667">"</text></g><g class="tree-node" transform="translate(-1021.25, 480)" style="opacity: 1;"><rect width="171" height="23" rx="0" ry="0"></rect><text class="node-text" y="11.5" dy=".35em" x="56.64536666870117">caracter</text><text class="token-range" x="0" y="11.5" dx="0" dy="-1.8em">⨳ 8</text><text class="token-value" x="0" y="11.5" dy="2.5em" dx="85.5"></text></g><g class="tree-node" transform="translate(-755.25, 480)" style="opacity: 1;"><rect width="171" height="23" rx="0" ry="0"></rect><text class="node-text" y="11.5" dy=".35em" x="56.64536666870117">caracter</text><text class="token-range" x="0" y="11.5" dx="0" dy="-1.8em">⨳ 9</text><text class="token-value" x="0" y="11.5" dy="2.5em" dx="85.5"></text></g><g class="tree-node" transform="translate(-489.25, 480)" style="opacity: 1;"><rect width="171" height="23" rx="0" ry="0"></rect><text class="node-text" y="11.5" dy=".35em" x="56.64536666870117">caracter</text><text class="token-range" x="0" y="11.5" dx="0" dy="-1.8em">⨳ 10</text><text class="token-value" x="0" y="11.5" dy="2.5em" dx="85.5"></text></g><g class="tree-node" transform="translate(-223.25, 480)" style="opacity: 1;"><rect width="171" height="23" rx="0" ry="0"></rect><text class="node-text" y="11.5" dy=".35em" x="56.64536666870117">caracter</text><text class="token-range" x="0" y="11.5" dx="0" dy="-1.8em">⨳ 11</text><text class="token-value" x="0" y="11.5" dy="2.5em" dx="85.5"></text></g><g class="tree-node" transform="translate(42.75, 480)" style="opacity: 1;"><rect width="171" height="23" rx="0" ry="0"></rect><text class="node-text" y="11.5" dy=".35em" x="56.64536666870117">caracter</text><text class="token-range" x="0" y="11.5" dx="0" dy="-1.8em">⨳ 12</text><text class="token-value" x="0" y="11.5" dy="2.5em" dx="85.5"></text></g><g class="tree-node" transform="translate(308.75, 480)" style="opacity: 1;"><rect width="171" height="23" rx="0" ry="0"></rect><text class="node-text" y="11.5" dy=".35em" x="56.64536666870117">caracter</text><text class="token-range" x="0" y="11.5" dx="0" dy="-1.8em">⨳ 13</text><text class="token-value" x="0" y="11.5" dy="2.5em" dx="85.5"></text></g><g class="tree-node" transform="translate(574.75, 480)" style="opacity: 1;"><rect width="171" height="23" rx="0" ry="0"></rect><text class="node-text" y="11.5" dy=".35em" x="56.64536666870117">caracter</text><text class="token-range" x="0" y="11.5" dx="0" dy="-1.8em">⨳ 14</text><text class="token-value" x="0" y="11.5" dy="2.5em" dx="85.5"></text></g><g class="tree-node" transform="translate(840.75, 480)" style="opacity: 1;"><rect width="171" height="23" rx="0" ry="0"></rect><text class="node-text" y="11.5" dy=".35em" x="56.64536666870117">caracter</text><text class="token-range" x="0" y="11.5" dx="0" dy="-1.8em">⨳ 15</text><text class="token-value" x="0" y="11.5" dy="2.5em" dx="85.5"></text></g><g class="tree-node" transform="translate(1106.75, 480)" style="opacity: 1;"><rect width="171" height="23" rx="0" ry="0"></rect><text class="node-text" y="11.5" dy=".35em" x="56.64536666870117">caracter</text><text class="token-range" x="0" y="11.5" dx="0" dy="-1.8em">⨳ 16</text><text class="token-value" x="0" y="11.5" dy="2.5em" dx="85.5"></text></g><g class="tree-node tree-leaf" transform="translate(-1021.25, 540)" style="opacity: 1;"><rect width="171" height="23" rx="10" ry="10"></rect><text class="node-text" y="11.5" dy=".35em" x="59.75322723388672">LETRA</text><text class="token-range" x="0" y="11.5" dx="0" dy="-1.8em">⨳ 8</text><text class="token-value" x="0" y="11.5" dy="2.5em" dx="80.7099027633667">F</text></g><g class="tree-node tree-leaf" transform="translate(-755.25, 540)" style="opacity: 1;"><rect width="171" height="23" rx="10" ry="10"></rect><text class="node-text" y="11.5" dy=".35em" x="59.75322723388672">LETRA</text><text class="token-range" x="0" y="11.5" dx="0" dy="-1.8em">⨳ 9</text><text class="token-value" x="0" y="11.5" dy="2.5em" dx="80.7099027633667">u</text></g><g class="tree-node tree-leaf" transform="translate(-489.25, 540)" style="opacity: 1;"><rect width="171" height="23" rx="10" ry="10"></rect><text class="node-text" y="11.5" dy=".35em" x="59.75322723388672">LETRA</text><text class="token-range" x="0" y="11.5" dx="0" dy="-1.8em">⨳ 10</text><text class="token-value" x="0" y="11.5" dy="2.5em" dx="80.7099027633667">n</text></g><g class="tree-node tree-leaf" transform="translate(-223.25, 540)" style="opacity: 1;"><rect width="171" height="23" rx="10" ry="10"></rect><text class="node-text" y="11.5" dy=".35em" x="59.75322723388672">LETRA</text><text class="token-range" x="0" y="11.5" dx="0" dy="-1.8em">⨳ 11</text><text class="token-value" x="0" y="11.5" dy="2.5em" dx="80.7099027633667">c</text></g><g class="tree-node tree-leaf" transform="translate(42.75, 540)" style="opacity: 1;"><rect width="171" height="23" rx="10" ry="10"></rect><text class="node-text" y="11.5" dy=".35em" x="59.75322723388672">LETRA</text><text class="token-range" x="0" y="11.5" dx="0" dy="-1.8em">⨳ 12</text><text class="token-value" x="0" y="11.5" dy="2.5em" dx="80.7099027633667">i</text></g><g class="tree-node tree-leaf" transform="translate(308.75, 540)" style="opacity: 1;"><rect width="171" height="23" rx="10" ry="10"></rect><text class="node-text" y="11.5" dy=".35em" x="59.75322723388672">LETRA</text><text class="token-range" x="0" y="11.5" dx="0" dy="-1.8em">⨳ 13</text><text class="token-value" x="0" y="11.5" dy="2.5em" dx="80.7099027633667">o</text></g><g class="tree-node tree-leaf" transform="translate(574.75, 540)" style="opacity: 1;"><rect width="171" height="23" rx="10" ry="10"></rect><text class="node-text" y="11.5" dy=".35em" x="59.75322723388672">LETRA</text><text class="token-range" x="0" y="11.5" dx="0" dy="-1.8em">⨳ 14</text><text class="token-value" x="0" y="11.5" dy="2.5em" dx="80.7099027633667">n</text></g><g class="tree-node tree-leaf" transform="translate(840.75, 540)" style="opacity: 1;"><rect width="171" height="23" rx="10" ry="10"></rect><text class="node-text" y="11.5" dy=".35em" x="59.75322723388672">LETRA</text><text class="token-range" x="0" y="11.5" dx="0" dy="-1.8em">⨳ 15</text><text class="token-value" x="0" y="11.5" dy="2.5em" dx="80.7099027633667">a</text></g><g class="tree-node tree-leaf" transform="translate(1106.75, 540)" style="opacity: 1;"><rect width="171" height="23" rx="10" ry="10"></rect><text class="node-text" y="11.5" dy=".35em" x="49.118072509765625">SIMBOLO</text><text class="token-range" x="0" y="11.5" dx="0" dy="-1.8em">⨳ 16</text><text class="token-value" x="0" y="11.5" dy="2.5em" dx="80.7099027633667">!</text></g></g><defs><style type="text/css"><![CDATA[
svg.railroad-diagram path { stroke-width: 2; stroke: darkgray; fill: rgba(0, 0, 0, 0);}/* All text except comments. */svg.railroad-diagram text { font: bold 12px Hack, "Source Code Pro", monospace; text-anchor: middle; fill: #404040;}/* Comment text */svg.railroad-diagram text.comment { font: italic 10px Hack, "Source Code Pro", monospace; fill: #404040;}/* The terminal boxes. */svg.railroad-diagram g.terminal rect { stroke-width: 2; stroke: #404040; fill: rgba(200, 200, 200, 1);}svg.railroad-diagram g.non-terminal rect { /* The non-terminal boxes. */ stroke-width: 2; stroke: #404040; fill: rgba(255, 255, 255, 1);}/* Multiple choice text, not working atm. */svg.railroad-diagram text.diagram-text { font-size: 12px Hack, "Source Code Pro", monospace; fill: red;}/* Multiple choice text, not working atm. */svg.railroad-diagram path.diagram-text { stroke-width: 1; stroke: red; fill: red; cursor: help;}
 ]]>
</style></defs></svg>